<mxfile host="app.diagrams.net" modified="2023-07-30T09:29:20.852Z" agent="Mozilla/5.0 (Windows NT 10.0; Win64; x64) AppleWebKit/537.36 (KHTML, like Gecko) Chrome/115.0.0.0 Safari/537.36" etag="3F6hS3ctYXZ1xtXF0XV3" version="21.1.4" type="device">
  <diagram name="Page-1" id="ZDq_2uAzDL0h_KHNRFCL">
    <mxGraphModel dx="1434" dy="758" grid="1" gridSize="10" guides="1" tooltips="1" connect="1" arrows="1" fold="1" page="1" pageScale="1" pageWidth="850" pageHeight="1100" math="0" shadow="0">
      <root>
        <mxCell id="0" />
        <mxCell id="1" parent="0" />
        <mxCell id="QbT3NThJ2wJY1qK6D7gt-1" value="" style="whiteSpace=wrap;html=1;aspect=fixed;" vertex="1" parent="1">
          <mxGeometry x="80" y="40" width="630" height="630" as="geometry" />
        </mxCell>
        <mxCell id="QbT3NThJ2wJY1qK6D7gt-2" value="Ansible-host&lt;br&gt;server" style="whiteSpace=wrap;html=1;aspect=fixed;" vertex="1" parent="1">
          <mxGeometry x="310" y="60" width="170" height="170" as="geometry" />
        </mxCell>
        <mxCell id="QbT3NThJ2wJY1qK6D7gt-3" value="airflow&lt;br&gt;server" style="whiteSpace=wrap;html=1;aspect=fixed;" vertex="1" parent="1">
          <mxGeometry x="180" y="290" width="130" height="130" as="geometry" />
        </mxCell>
        <mxCell id="QbT3NThJ2wJY1qK6D7gt-4" value="db&lt;br&gt;server" style="whiteSpace=wrap;html=1;aspect=fixed;" vertex="1" parent="1">
          <mxGeometry x="480" y="280" width="130" height="130" as="geometry" />
        </mxCell>
      </root>
    </mxGraphModel>
  </diagram>
</mxfile>
